<?xml version="1.0" encoding="UTF-8"?>
<svg width="16px" height="16px" viewBox="0 0 16 16" version="1.1" xmlns="http://www.w3.org/2000/svg" xmlns:xlink="http://www.w3.org/1999/xlink">
    <title>切片</title>
    <g id="页面-1" stroke="none" stroke-width="1" fill="none" fill-rule="evenodd">
        <g id="个人中心" transform="translate(-639.000000, -193.000000)">
            <g id="Icon/iocn-copy" transform="translate(639.000000, 193.000000)">
                <rect id="矩形" x="0" y="0" width="16" height="16"></rect>
                <g id="编组" transform="translate(1.333333, 2.000000)" fill="#878999" fill-rule="nonzero">
                    <path d="M11.7291667,-0.5 C12.5230757,-0.5 13.1666667,0.143590958 13.1666667,0.9375 L13.1666667,9.0625 C13.1666667,9.85640904 12.5230757,10.5 11.7291667,10.5 L10.1721,10.5 C9.89595763,10.5 9.6721,10.2761424 9.6721,10 C9.6721,9.72385763 9.89595763,9.5 10.1721,9.5 L11.7291667,9.5 C11.970791,9.5 12.1666667,9.30412429 12.1666667,9.0625 L12.1666667,0.9375 C12.1666667,0.695875708 11.970791,0.5 11.7291667,0.5 L3.60416667,0.5 C3.36254237,0.5 3.16666667,0.695875708 3.16666667,0.9375 L3.16666667,2.4772 C3.16666667,2.75334237 2.94280904,2.9772 2.66666667,2.9772 C2.39052429,2.9772 2.16666667,2.75334237 2.16666667,2.4772 L2.16666667,0.9375 C2.16666667,0.143590958 2.81025763,-0.5 3.60416667,-0.5 L11.7291667,-0.5 Z" id="路径"></path>
                    <path d="M9.0625,2.16666667 L0.9375,2.16666667 C0.143590958,2.16666667 -0.5,2.81025763 -0.5,3.60416667 L-0.5,11.7291667 C-0.5,12.5230757 0.143590958,13.1666667 0.9375,13.1666667 L9.0625,13.1666667 C9.85640904,13.1666667 10.5,12.5230757 10.5,11.7291667 L10.5,3.60416667 C10.5,2.81025763 9.85640904,2.16666667 9.0625,2.16666667 Z M9.0625,3.16666667 C9.30412429,3.16666667 9.5,3.36254237 9.5,3.60416667 L9.5,11.7291667 C9.5,11.970791 9.30412429,12.1666667 9.0625,12.1666667 L0.9375,12.1666667 C0.695875708,12.1666667 0.5,11.970791 0.5,11.7291667 L0.5,3.60416667 C0.5,3.36254237 0.695875708,3.16666667 0.9375,3.16666667 L9.0625,3.16666667 Z" id="路径"></path>
                </g>
            </g>
        </g>
    </g>
</svg>